<svg width="507.422" height="78.858" viewBox="0 0 507.422 78.858" xmlns="http://www.w3.org/2000/svg">
    <g id="svgGroup" stroke-linecap="round" fill-rule="evenodd" font-size="9pt" stroke="#000" stroke-width="0.25mm"
        fill="#000" style="stroke:#000;stroke-width:0.25mm;fill:#000">
        <path
            d="M 0 52.002 L 0 1.075 L 12.11 1.075 L 12.11 53.223 A 30.664 30.664 0 0 0 12.259 56.331 Q 12.421 57.924 12.761 59.297 A 16.72 16.72 0 0 0 13.013 60.206 Q 13.916 63.135 15.601 65.04 A 10.092 10.092 0 0 0 19.727 67.847 A 14.291 14.291 0 0 0 22.85 68.601 A 18.545 18.545 0 0 0 25.244 68.751 A 17.974 17.974 0 0 0 28.248 68.51 A 13.941 13.941 0 0 0 30.762 67.847 Q 33.203 66.944 34.912 65.04 A 11.413 11.413 0 0 0 36.658 62.417 A 15.214 15.214 0 0 0 37.525 60.206 Q 38.304 57.676 38.411 54.31 A 34.349 34.349 0 0 0 38.428 53.223 L 38.428 1.075 L 50.488 1.075 L 50.488 52.002 A 38.218 38.218 0 0 1 50.059 57.867 A 28.71 28.71 0 0 1 48.657 63.379 Q 46.826 68.36 43.506 71.802 Q 40.186 75.245 35.523 77.051 A 26.849 26.849 0 0 1 28.328 78.715 A 32.587 32.587 0 0 1 25.244 78.858 A 30.83 30.83 0 0 1 19.197 78.286 A 25.422 25.422 0 0 1 14.942 77.051 Q 10.303 75.245 6.983 71.802 A 22.899 22.899 0 0 1 2.72 65.521 A 27.606 27.606 0 0 1 1.831 63.379 A 29.061 29.061 0 0 1 0.351 57.328 A 38.783 38.783 0 0 1 0 52.002 Z M 467.871 75.001 L 467.92 63.428 A 35.637 35.637 0 0 0 471.705 65.722 Q 473.739 66.78 475.695 67.405 A 21.435 21.435 0 0 0 476.099 67.53 A 27.857 27.857 0 0 0 481.661 68.609 A 24.672 24.672 0 0 0 483.789 68.702 Q 487.11 68.702 489.404 67.896 Q 491.699 67.09 493.091 65.796 A 7.992 7.992 0 0 0 494.567 63.975 A 7.15 7.15 0 0 0 495.093 62.867 A 9.366 9.366 0 0 0 495.703 59.571 A 10.217 10.217 0 0 0 495.126 56.109 A 9.503 9.503 0 0 0 494.483 54.688 A 18.404 18.404 0 0 0 492.446 51.759 A 21.992 21.992 0 0 0 491.284 50.489 Q 489.307 48.487 486.792 46.631 A 467.106 467.106 0 0 1 481.97 43.024 A 510.034 510.034 0 0 1 481.641 42.774 Q 479.004 40.772 476.465 38.55 Q 473.926 36.329 471.948 33.619 Q 469.971 30.909 468.775 27.613 A 19.741 19.741 0 0 1 467.747 23.182 A 25.263 25.263 0 0 1 467.578 20.215 A 23.124 23.124 0 0 1 468.04 15.504 A 18.717 18.717 0 0 1 469.214 11.793 A 18.21 18.21 0 0 1 473.552 5.632 A 17.764 17.764 0 0 1 473.731 5.469 A 19.692 19.692 0 0 1 479.475 1.905 A 22.974 22.974 0 0 1 480.567 1.49 Q 484.522 0.098 489.16 0.098 Q 492.871 0.098 496.582 0.904 A 32.669 32.669 0 0 1 499.847 1.783 Q 501.467 2.315 502.845 2.987 A 20.109 20.109 0 0 1 503.028 3.077 L 502.979 14.405 Q 499.463 12.11 496.338 11.133 A 20.933 20.933 0 0 0 490.907 10.172 A 19.451 19.451 0 0 0 490.137 10.157 A 17.245 17.245 0 0 0 487.88 10.297 Q 486.686 10.455 485.665 10.79 A 10.198 10.198 0 0 0 485.376 10.889 A 10.781 10.781 0 0 0 483.468 11.787 A 8.525 8.525 0 0 0 482.007 12.891 A 8.071 8.071 0 0 0 480.005 15.845 A 9.737 9.737 0 0 0 479.357 18.991 A 11.283 11.283 0 0 0 479.346 19.483 A 11.527 11.527 0 0 0 479.768 22.648 A 10.025 10.025 0 0 0 480.542 24.586 A 17.525 17.525 0 0 0 482.888 27.969 A 20.425 20.425 0 0 0 483.716 28.858 A 34.01 34.01 0 0 0 486.849 31.647 A 40.014 40.014 0 0 0 488.233 32.691 A 371.273 371.273 0 0 1 493.384 36.475 A 109.285 109.285 0 0 1 498.535 40.577 A 29.723 29.723 0 0 1 503.052 45.337 Q 505.029 47.95 506.226 51.172 Q 507.422 54.395 507.422 58.448 A 22.6 22.6 0 0 1 506.833 63.692 A 19.378 19.378 0 0 1 505.835 66.749 A 18.117 18.117 0 0 1 501.294 73.194 A 19.843 19.843 0 0 1 496.271 76.493 A 24.168 24.168 0 0 1 494.116 77.369 A 25.923 25.923 0 0 1 488.446 78.649 A 33.017 33.017 0 0 1 484.668 78.858 A 37.654 37.654 0 0 1 480.867 78.66 A 42.078 42.078 0 0 1 480.225 78.589 A 45.858 45.858 0 0 1 475.708 77.833 A 37.051 37.051 0 0 1 471.714 76.724 A 34.058 34.058 0 0 1 471.46 76.636 A 22.239 22.239 0 0 1 469.383 75.796 A 17.308 17.308 0 0 1 467.871 75.001 Z M 81.983 77.784 L 81.983 10.938 L 63.819 10.938 L 63.819 1.075 L 112.061 1.075 L 112.061 10.938 L 93.946 10.938 L 93.946 77.784 L 81.983 77.784 Z M 247.754 77.784 L 247.754 10.938 L 229.59 10.938 L 229.59 1.075 L 277.832 1.075 L 277.832 10.938 L 259.717 10.938 L 259.717 77.784 L 247.754 77.784 Z M 157.031 77.784 L 157.031 1.075 L 168.994 1.075 L 168.994 67.92 L 192.481 67.92 L 192.481 77.784 L 157.031 77.784 Z M 423.096 77.784 L 423.096 1.075 L 435.059 1.075 L 435.059 67.92 L 458.545 67.92 L 458.545 77.784 L 423.096 77.784 Z M 305.886 77.673 A 27.313 27.313 0 0 0 314.014 78.858 A 30.253 30.253 0 0 0 314.947 78.844 A 26.045 26.045 0 0 0 325.122 76.514 A 21.883 21.883 0 0 0 328.753 74.403 A 24.518 24.518 0 0 0 333.936 69.312 A 26.531 26.531 0 0 0 334.45 68.616 Q 337.793 63.93 339.722 57.007 Q 340.922 52.702 341.428 47.476 A 84.399 84.399 0 0 0 341.797 39.356 Q 341.797 29.2 339.722 21.778 A 50.989 50.989 0 0 0 339.456 20.86 Q 338.503 17.684 337.238 15.003 A 29.988 29.988 0 0 0 333.936 9.522 Q 330.225 4.688 325.122 2.344 A 25.027 25.027 0 0 0 322.515 1.319 A 26.963 26.963 0 0 0 314.014 0.001 A 30.4 30.4 0 0 0 312.515 0.037 A 25.984 25.984 0 0 0 302.857 2.344 A 21.892 21.892 0 0 0 299.48 4.275 A 24.21 24.21 0 0 0 294.068 9.522 A 26.432 26.432 0 0 0 293.557 10.215 Q 290.235 14.878 288.306 21.778 Q 286.231 29.2 286.231 39.356 Q 286.231 45.096 286.887 49.964 A 52.302 52.302 0 0 0 288.306 57.007 A 51.875 51.875 0 0 0 288.572 57.928 Q 289.524 61.115 290.784 63.807 A 30.394 30.394 0 0 0 294.068 69.312 A 27.092 27.092 0 0 0 295.072 70.558 A 22.618 22.618 0 0 0 302.857 76.514 A 24.919 24.919 0 0 0 305.886 77.673 Z M 371.658 77.673 A 27.313 27.313 0 0 0 379.785 78.858 A 30.253 30.253 0 0 0 380.718 78.844 A 26.045 26.045 0 0 0 390.894 76.514 A 21.883 21.883 0 0 0 394.525 74.403 A 24.518 24.518 0 0 0 399.707 69.312 A 26.531 26.531 0 0 0 400.221 68.616 Q 403.564 63.93 405.493 57.007 Q 406.693 52.702 407.199 47.476 A 84.399 84.399 0 0 0 407.569 39.356 Q 407.569 29.2 405.493 21.778 A 50.989 50.989 0 0 0 405.228 20.86 Q 404.275 17.684 403.009 15.003 A 29.988 29.988 0 0 0 399.707 9.522 Q 395.996 4.688 390.894 2.344 A 25.027 25.027 0 0 0 388.286 1.319 A 26.963 26.963 0 0 0 379.785 0.001 A 30.4 30.4 0 0 0 378.287 0.037 A 25.984 25.984 0 0 0 368.628 2.344 A 21.892 21.892 0 0 0 365.251 4.275 A 24.21 24.21 0 0 0 359.839 9.522 A 26.432 26.432 0 0 0 359.328 10.215 Q 356.006 14.878 354.077 21.778 Q 352.002 29.2 352.002 39.356 Q 352.002 45.096 352.659 49.964 A 52.302 52.302 0 0 0 354.077 57.007 A 51.875 51.875 0 0 0 354.343 57.928 Q 355.295 61.115 356.555 63.807 A 30.394 30.394 0 0 0 359.839 69.312 A 27.092 27.092 0 0 0 360.843 70.558 A 22.618 22.618 0 0 0 368.628 76.514 A 24.919 24.919 0 0 0 371.658 77.673 Z M 124.951 77.784 L 124.951 1.075 L 136.914 1.075 L 136.914 77.784 L 124.951 77.784 Z M 204.737 77.784 L 204.737 1.075 L 216.699 1.075 L 216.699 77.784 L 204.737 77.784 Z M 314.014 68.751 A 11.735 11.735 0 0 0 319.971 67.115 A 12.299 12.299 0 0 0 322.787 64.846 Q 323.8 63.766 324.697 62.369 A 21.146 21.146 0 0 0 324.951 61.963 Q 326.702 59.099 327.869 54.873 A 45.452 45.452 0 0 0 328.369 52.881 A 45.844 45.844 0 0 0 329.191 47.98 Q 329.471 45.568 329.576 42.841 A 88.202 88.202 0 0 0 329.639 39.454 Q 329.639 31.544 328.369 25.953 Q 327.373 21.563 325.834 18.423 A 21.302 21.302 0 0 0 324.951 16.797 A 18.406 18.406 0 0 0 323.093 14.216 Q 321.877 12.817 320.49 11.897 A 11.026 11.026 0 0 0 319.971 11.573 A 11.604 11.604 0 0 0 314.014 9.913 A 11.604 11.604 0 0 0 308.057 11.573 Q 305.225 13.233 303.052 16.797 Q 301.266 19.727 300.091 24.024 A 45.487 45.487 0 0 0 299.61 25.953 A 46.21 46.21 0 0 0 298.788 30.878 Q 298.508 33.302 298.403 36.046 A 89.26 89.26 0 0 0 298.34 39.454 Q 298.34 45.626 299.123 50.384 A 41.623 41.623 0 0 0 299.61 52.881 Q 300.879 58.448 303.052 61.963 A 18.424 18.424 0 0 0 304.926 64.51 Q 306.172 65.914 307.589 66.829 A 11.095 11.095 0 0 0 308.057 67.115 Q 310.889 68.751 314.014 68.751 Z M 379.785 68.751 A 11.735 11.735 0 0 0 385.742 67.115 A 12.299 12.299 0 0 0 388.558 64.846 Q 389.571 63.766 390.469 62.369 A 21.146 21.146 0 0 0 390.723 61.963 Q 392.473 59.099 393.64 54.873 A 45.452 45.452 0 0 0 394.141 52.881 A 45.844 45.844 0 0 0 394.963 47.98 Q 395.243 45.568 395.347 42.841 A 88.202 88.202 0 0 0 395.41 39.454 Q 395.41 31.544 394.141 25.953 Q 393.144 21.563 391.605 18.423 A 21.302 21.302 0 0 0 390.723 16.797 A 18.406 18.406 0 0 0 388.864 14.216 Q 387.649 12.817 386.262 11.897 A 11.026 11.026 0 0 0 385.742 11.573 A 11.604 11.604 0 0 0 379.785 9.913 A 11.604 11.604 0 0 0 373.828 11.573 Q 370.996 13.233 368.823 16.797 Q 367.038 19.727 365.862 24.024 A 45.487 45.487 0 0 0 365.381 25.953 A 46.21 46.21 0 0 0 364.559 30.878 Q 364.279 33.302 364.174 36.046 A 89.26 89.26 0 0 0 364.112 39.454 Q 364.112 45.626 364.894 50.384 A 41.623 41.623 0 0 0 365.381 52.881 Q 366.651 58.448 368.823 61.963 A 18.424 18.424 0 0 0 370.698 64.51 Q 371.943 65.914 373.36 66.829 A 11.095 11.095 0 0 0 373.828 67.115 Q 376.66 68.751 379.785 68.751 Z"
            vector-effect="non-scaling-stroke" />
    </g>
</svg>